PathFileType	4	(X/Y/Z)	Walk_125 04
DataRate	CameraRate	NumFrames	NumMarkers	Units	OrigDataRate	OrigDataStartFrame	OrigNumFrames
120	120	6	42	mm	120	204	128
Frame#	Time	LASI			RASI			LPSI			RPSI			RTH1			RTH2			RTH3			LTH1			LTH2			LTH3			RTB1			RTB2			RTB3			LTB1			LTB2			LTB3			RCAL			RTOE			RMT5			LCAL			LTOE			LMT5			LACR			RACR			CLAV			C7			RUA1			RUA2			RUA3			RLEL			RMEL			LUA1			LUA2			LUA3			LLEL			LMEL			RFAsuperior			RFAradius			RFAulna			LFAsuperior			LFAradius			LFAulna		
		X1	Y1	Z1	X2	Y2	Z2	X3	Y3	Z3	X4	Y4	Z4	X5	Y5	Z5	X6	Y6	Z6	X7	Y7	Z7	X8	Y8	Z8	X9	Y9	Z9	X10	Y10	Z10	X11	Y11	Z11	X12	Y12	Z12	X13	Y13	Z13	X14	Y14	Z14	X15	Y15	Z15	X16	Y16	Z16	X17	Y17	Z17	X18	Y18	Z18	X19	Y19	Z19	X20	Y20	Z20	X21	Y21	Z21	X22	Y22	Z22	X23	Y23	Z23	X24	Y24	Z24	X25	Y25	Z25	X26	Y26	Z26	X27	Y27	Z27	X28	Y28	Z28	X29	Y29	Z29	X30	Y30	Z30	X31	Y31	Z31	X32	Y32	Z32	X33	Y33	Z33	X34	Y34	Z34	X35	Y35	Z35	X36	Y36	Z36	X37	Y37	Z37	X38	Y38	Z38	X39	Y39	Z39	X40	Y40	Z40	X41	Y41	Z41	X42	Y42	Z42	

204	  1.700000	871.307815	1110.388864	-624.927619	856.211610	1105.801701	-363.892250	683.169857	1128.280379	-541.099413	677.106842	1120.968276	-458.827332	825.295764	930.096359	-315.346772	907.410895	837.546891	-317.741151	867.011906	713.746296	-342.315678	818.817837	891.582559	-675.070981	879.591450	770.977763	-655.732387	811.512552	655.924905	-637.220158	904.334886	444.483961	-413.176735	844.150507	406.142139	-345.116557	804.613748	314.791973	-413.245030	851.404704	418.762268	-565.624411	816.309758	334.493880	-618.475561	808.861363	222.510139	-549.269555	612.121259	270.612881	-424.637828	777.358691	105.711466	-439.001069	703.652924	121.936270	-352.702750	676.498121	100.620252	-543.570403	909.603390	 77.098557	-517.121370	843.696529	 53.483476	-610.574079	838.471119	1573.455570	-652.136885	809.214614	1560.402552	-306.381544	879.035311	1516.980607	-444.770392	758.136461	1609.971920	-480.826226	778.128438	1444.897075	-244.062077	773.096428	1351.794360	-258.610016	699.585204	1343.242236	-243.793800	661.008403	1212.442445	-231.227900	657.959826	1212.106023	-304.257018	831.042899	1476.965361	-726.017898	849.528254	1405.902582	-718.014893	762.442928	1370.489988	-726.679448	788.311478	1211.037117	-771.202996	753.916985	1199.165408	-703.588048	695.382894	1126.035003	-190.136930	740.837356	942.431018	-209.233998	675.113281	951.379010	-175.319427	864.325242	1155.042011	-786.462001	957.961417	983.647275	-752.824691	907.543455	964.853278	-803.352508	
205	  1.708333	870.532439	1110.659440	-625.139181	855.409298	1106.632694	-364.177520	682.241830	1128.677668	-541.046766	676.148814	1120.838404	-458.013435	826.122919	931.523222	-314.950794	909.975721	840.199210	-317.482849	871.006957	715.619151	-340.863753	815.459319	891.707235	-675.024840	874.390218	770.356233	-656.011873	804.569213	655.970082	-637.285117	914.566795	444.946886	-411.812794	856.155292	404.736570	-345.131492	817.214169	313.130966	-413.358770	842.363185	418.444508	-565.751948	806.872910	334.330351	-618.568870	798.972064	222.420718	-549.282447	629.446911	259.339301	-424.537753	802.132217	102.387393	-439.507045	728.068457	115.207155	-352.844808	666.052074	100.758939	-543.355279	899.162482	 77.034429	-517.204680	833.214647	 53.499454	-610.742853	838.761111	1574.033315	-651.839660	808.910091	1560.617709	-306.198237	878.779807	1517.197737	-444.521745	758.156793	1610.453188	-480.713096	776.883152	1445.416877	-244.041506	771.031123	1352.417424	-258.853288	697.352266	1344.475694	-244.194094	657.542604	1213.946868	-232.129924	654.852179	1213.763372	-305.134123	831.762043	1477.698409	-725.902555	850.499296	1406.657761	-717.907965	763.614240	1370.907433	-726.919417	790.446666	1211.509503	-771.596765	756.149063	1199.364029	-704.158990	691.081935	1127.244911	-190.987734	735.686167	943.500540	-209.746813	669.593912	952.640188	-176.653270	867.258384	1156.359383	-786.286268	963.342343	986.602505	-751.858148	913.448345	966.896215	-802.499933	
206	  1.716667	869.721041	1110.846188	-625.244712	854.610692	1107.282281	-364.416463	681.345398	1128.914951	-540.960662	675.211161	1120.823174	-457.491242	826.950080	932.774742	-314.468938	912.512966	842.752996	-317.151404	874.830050	717.420971	-339.298554	812.128193	891.793601	-674.883045	869.242451	769.684873	-656.074502	797.766900	655.979659	-637.350360	924.373825	445.497684	-410.917710	868.096387	403.105039	-345.034257	829.748914	311.253491	-413.391399	833.380921	418.088726	-565.746205	797.440793	334.151011	-618.564199	789.086565	222.305240	-549.196891	647.497992	247.644599	-424.256675	827.324131	 99.205054	-440.033308	753.126038	108.488615	-352.947299	655.692525	100.914402	-543.140979	888.722444	 76.990455	-517.285455	822.684937	 53.485197	-610.712033	839.050838	1574.400776	-651.488382	808.645325	1560.689512	-306.008553	878.556767	1517.245453	-444.276770	758.193037	1610.776429	-480.590811	775.690911	1445.775146	-243.994982	769.037861	1352.832842	-259.198660	695.225707	1345.528160	-244.527555	654.227360	1215.256653	-232.984842	651.913752	1215.219452	-305.951019	832.438447	1478.245544	-725.736080	851.451019	1407.222533	-717.762948	764.744867	1371.149128	-727.103160	792.517779	1211.802240	-771.938073	758.214290	1199.376304	-704.660779	686.975950	1128.291314	-191.771018	730.807314	944.455500	-210.130447	664.345480	953.740529	-177.915510	870.125918	1157.498252	-786.056594	968.566579	989.404517	-750.721352	919.247087	968.783345	-801.515131	
207	  1.725000	868.812490	1110.972223	-625.269614	853.825595	1107.733481	-364.610600	680.434600	1129.048346	-540.821960	674.275232	1120.942325	-457.247563	827.755496	933.848082	-313.951948	914.959796	845.159221	-316.771169	878.447443	719.113465	-337.757672	808.852209	891.801100	-674.595597	864.161248	768.952087	-655.953894	791.109697	656.000623	-637.491113	933.946089	446.113968	-410.895037	879.941312	401.274421	-344.833962	842.645805	309.015418	-413.338892	824.461996	417.743546	-565.783369	788.030368	333.956311	-618.483871	779.204464	222.160518	-548.995936	666.258042	235.668428	-423.784089	852.963691	 96.326344	-440.479653	778.787216	101.917077	-352.985138	645.397304	101.086017	-542.939863	878.292374	 76.871669	-517.298204	812.145912	 53.474751	-610.586066	839.344160	1574.580187	-651.111907	808.407629	1560.624374	-305.826016	878.364988	1517.124382	-444.026328	758.242418	1610.935748	-480.457687	774.553748	1445.966921	-243.928644	767.131659	1353.043802	-259.587827	693.211312	1346.393556	-244.815318	651.084582	1216.369794	-233.795356	649.117660	1216.468979	-306.716412	833.074212	1478.602444	-725.530653	852.372241	1407.593409	-717.591032	765.830611	1371.209152	-727.211918	794.546365	1211.912336	-772.236591	760.148255	1199.190731	-705.079640	683.060667	1129.172860	-192.480731	726.217422	945.269896	-210.394399	659.372052	954.660319	-179.115418	872.941510	1158.450274	-785.812836	973.642401	992.046696	-749.407260	924.927195	970.508761	-800.395938	
208	  1.733333	867.820103	1111.021086	-625.218304	853.062948	1107.973117	-364.747805	679.482950	1129.098641	-540.601643	673.348206	1121.040911	-457.092643	828.497259	934.740913	-313.440960	917.199886	847.327372	-316.373451	881.796764	720.640347	-336.417350	805.650639	891.703426	-674.212202	859.154986	768.148623	-655.704379	784.560286	656.043890	-637.704424	943.377013	446.672446	-411.500455	891.675392	399.273258	-344.538149	856.406938	306.256144	-413.163337	815.610081	417.416278	-565.882382	778.678739	333.749017	-618.362661	769.349794	221.996413	-548.717412	685.671697	223.568288	-423.112571	878.990815	 93.850832	-440.810842	804.988367	 95.620966	-352.951811	635.142822	101.275138	-542.755966	867.869638	 76.629643	-517.202298	801.626650	 53.487680	-610.457282	839.643537	1574.598715	-650.755174	808.167079	1560.404226	-305.649574	878.196485	1516.837799	-443.763272	758.300790	1610.925888	-480.306607	773.473080	1445.996365	-243.845171	765.331643	1353.070650	-259.949421	691.317549	1347.066876	-245.077882	648.131172	1217.292949	-234.559580	646.472435	1217.507956	-307.438424	833.677998	1478.763338	-725.309450	853.254107	1407.768443	-717.411233	766.879030	1371.084140	-727.246674	796.546577	1211.836811	-772.490710	762.024457	1198.817443	-705.421572	679.337549	1129.892500	-193.119593	721.897655	945.895663	-210.630614	654.681713	955.395412	-180.249128	875.709648	1159.211689	-785.549426	978.609753	994.535496	-747.965015	930.487551	972.076678	-799.141712	
209	  1.741667	866.810627	1110.947146	-625.076611	852.329797	1107.993272	-364.811079	678.510686	1129.039599	-540.275830	672.449276	1120.957670	-456.869043	829.115885	935.439747	-312.945036	919.111559	849.166520	-315.969156	884.798006	721.965121	-335.410302	802.540549	891.502144	-673.851368	854.230967	767.273240	-655.354886	778.089589	656.072244	-637.910753	952.607228	447.044351	-412.106921	903.310950	397.131510	-344.141415	871.271677	302.945158	-412.812918	806.828093	417.067893	-565.956611	769.414136	333.529104	-618.221441	759.557673	221.830498	-548.442686	705.667145	211.481649	-422.253412	905.291867	 91.846606	-441.037015	831.655020	 89.726807	-352.846142	624.911222	101.482705	-542.581392	857.440557	 76.293501	-517.010030	791.129923	 53.518738	-610.355679	839.948620	1574.468060	-650.436869	807.904346	1560.003959	-305.469500	878.043138	1516.391980	-443.487092	758.364461	1610.749541	-480.126472	772.458355	1445.873395	-243.744863	763.655414	1352.948683	-260.214068	689.545552	1347.548101	-245.332654	645.378449	1218.031370	-235.276571	644.023222	1218.330201	-308.117793	834.254986	1478.722318	-725.090788	854.091362	1407.749551	-717.237457	767.902119	1370.768680	-727.227120	798.527854	1211.572696	-772.692353	763.865270	1198.280836	-705.703052	675.822728	1130.451077	-193.696879	717.803682	946.292455	-210.954129	650.286840	955.960576	-181.297207	878.437952	1159.784445	-785.226360	983.505117	996.871057	-746.455618	935.934658	973.487506	-797.753578	
